# xmcd
#
# Track frame offsets:
#	150
#	23820
#	62252
#	69894
#	84629
#	90203
#	103836
#	108451
#	130520
#	136291
#	147282
#	156731
#	176692
#	181855
#	198260
#	205819
#	215766
#	226119
#
# Disc length: 3416 seconds
#
# Revision: 1
# Processed by: cddbd v1.5.2PL0 Copyright (c) Steve Scherf et al.
# Submitted via: audiograbber 1.83.01
#
DISCID=f20d5612
DTITLE=Grateful Dead - 70-11-08A Capitol Theatre, Port Chester NY
DYEAR=1900
DGENRE=Rock
TTITLE0=Dire Wolf
TTITLE1=I Know You Rider
TTITLE2=Tuning
TTITLE3=Dark Hollow
TTITLE4="Godzilla..."
TTITLE5=Rosalie McFall
TTITLE6=Tuning
TTITLE7=El Paso
TTITLE8=Tuning
TTITLE9=Operator
TTITLE10=Tuning
TTITLE11=Ripple
TTITLE12=Tuning
TTITLE13=Friend Of The Devil
TTITLE14=Tuning
TTITLE15=Wake Up Little Susie
TTITLE16=Tuning
TTITLE17=Uncle John's Band
EXTD=
EXTT0=
EXTT1=
EXTT2=
EXTT3=
EXTT4=
EXTT5=
EXTT6=
EXTT7=
EXTT8=
EXTT9=
EXTT10=
EXTT11=
EXTT12=
EXTT13=
EXTT14=
EXTT15=
EXTT16=
EXTT17=
PLAYORDER=
